<svg xmlns="http://www.w3.org/2000/svg" viewBox="0 0 1254 1254" role="img" aria-label="Phuse">
  <title>Phuse</title>
  <path fill="#000000" d="M415,280 L699,280 L738,285 L757,290 L771,295 L783,300 L794,305 L803,310 L811,315 L819,320 L826,325 L832,330 L838,335 L844,340 L850,345 L855,350 L859,355 L864,360 L868,365 L872,370 L876,375 L880,380 L883,385 L887,390 L890,395 L893,400 L895,405 L898,410 L901,415 L903,420 L905,425 L907,430 L909,435 L911,440 L913,445 L914,450 L915,455 L917,460 L918,465 L919,470 L920,475 L921,480 L921,485 L922,490 L922,495 L923,500 L923,505 L923,510 L923,515 L923,520 L923,525 L923,530 L923,535 L922,540 L922,545 L921,550 L921,555 L920,560 L919,565 L918,570 L916,575 L915,580 L914,585 L912,590 L911,595 L909,600 L907,605 L905,610 L903,615 L901,620 L899,625 L896,630 L893,635 L890,640 L888,645 L884,650 L881,655 L877,660 L874,665 L870,670 L866,675 L861,680 L857,685 L852,690 L846,695 L841,700 L835,705 L829,710 L822,715 L814,720 L806,725 L797,730 L788,735 L777,740 L763,745 L746,750 L721,755 L696,757 L548,757 L548,669 L723,665 L739,660 L750,655 L760,650 L768,645 L775,640 L781,635 L787,630 L792,625 L797,620 L801,615 L805,610 L809,605 L812,600 L815,595 L818,590 L821,585 L823,580 L825,575 L827,570 L828,565 L830,560 L831,555 L832,550 L833,545 L834,540 L835,535 L835,530 L835,525 L835,520 L835,515 L835,510 L835,505 L834,500 L834,495 L833,490 L832,485 L830,480 L829,475 L828,470 L826,465 L824,460 L821,455 L819,450 L816,445 L813,440 L810,435 L806,430 L802,425 L798,420 L794,415 L789,410 L783,405 L777,400 L771,395 L763,390 L754,385 L743,380 L729,375 L704,370 L415,369 Z M415,492 L505,492 L505,974 L415,974 Z"/>
</svg>
